<?xml version="1.0" encoding="utf-8"?>
<!-- Generator: Adobe Illustrator 17.0.0, SVG Export Plug-In . SVG Version: 6.00 Build 0)  -->
<!DOCTYPE svg PUBLIC "-//W3C//DTD SVG 1.1//EN" "http://www.w3.org/Graphics/SVG/1.1/DTD/svg11.dtd">
<svg version="1.1" id="Layer_1" xmlns="http://www.w3.org/2000/svg" xmlns:xlink="http://www.w3.org/1999/xlink" x="0px" y="0px"
	 width="150px" height="150px" viewBox="0 0 150 150" enable-background="new 0 0 150 150" xml:space="preserve">
<g>
	<radialGradient id="SVGID_1_" cx="74.6676" cy="74.6667" r="20.4178" gradientUnits="userSpaceOnUse">
		<stop  offset="0" style="stop-color:#2484C6"/>
		<stop  offset="1" style="stop-color:#2484C6;stop-opacity:0"/>
	</radialGradient>
	<path opacity="0.5" fill="url(#SVGID_1_)" d="M95.093,54.256c0,22.561-18.288,40.821-40.85,40.821
		C54.243,72.544,72.531,54.256,95.093,54.256z"/>

	<radialGradient id="SVGID_2_" cx="74.6676" cy="74.6667" r="20.4179" gradientUnits="userSpaceOnUse">
		<stop  offset="0" style="stop-color:#2484C6"/>
		<stop  offset="1" style="stop-color:#2484C6;stop-opacity:0"/>
	</radialGradient>
	<path opacity="0.5" fill="url(#SVGID_2_)" d="M95.093,95.077c-22.561,0-40.85-18.289-40.85-40.822
		C76.804,54.256,95.093,72.516,95.093,95.077z"/>

	<radialGradient id="SVGID_3_" cx="74.6676" cy="74.6667" r="40.8358" gradientUnits="userSpaceOnUse">
		<stop  offset="0" style="stop-color:#2484C6"/>
		<stop  offset="1" style="stop-color:#2484C6;stop-opacity:0"/>
	</radialGradient>
	<path opacity="0.5" fill="url(#SVGID_3_)" d="M115.503,74.652c0,22.562-18.288,40.85-40.822,40.85
		c-22.561,0-40.85-18.288-40.85-40.85c22.561,0,40.85-18.26,40.85-40.821C74.682,56.392,92.942,74.652,115.503,74.652z"/>

	<radialGradient id="SVGID_4_" cx="74.6676" cy="74.6667" r="20.4178" gradientUnits="userSpaceOnUse">
		<stop  offset="0" style="stop-color:#2484C6"/>
		<stop  offset="1" style="stop-color:#2484C6;stop-opacity:0"/>
	</radialGradient>
	<path opacity="0.5" fill="url(#SVGID_4_)" d="M95.093,54.256c0,22.561-18.288,40.821-40.85,40.821
		C54.243,72.544,72.531,54.256,95.093,54.256z"/>

	<radialGradient id="SVGID_5_" cx="74.6676" cy="74.6667" r="20.4108" gradientUnits="userSpaceOnUse">
		<stop  offset="0" style="stop-color:#2484C6"/>
		<stop  offset="1" style="stop-color:#2484C6;stop-opacity:0"/>
	</radialGradient>
	<path opacity="0.5" fill="url(#SVGID_5_)" d="M95.078,95.077c-22.561,0-40.822-18.26-40.822-40.821
		C76.79,54.256,95.078,72.544,95.078,95.077z"/>

	<radialGradient id="SVGID_6_" cx="74.6676" cy="74.6667" r="20.4108" gradientUnits="userSpaceOnUse">
		<stop  offset="0" style="stop-color:#2484C6"/>
		<stop  offset="1" style="stop-color:#2484C6;stop-opacity:0"/>
	</radialGradient>
	<path opacity="0.5" fill="url(#SVGID_6_)" d="M95.078,95.077c-22.561,0-40.822-18.26-40.822-40.821
		C76.79,54.256,95.078,72.544,95.078,95.077z"/>

	<radialGradient id="SVGID_7_" cx="74.6676" cy="74.6667" r="20.4108" gradientUnits="userSpaceOnUse">
		<stop  offset="0" style="stop-color:#2484C6"/>
		<stop  offset="1" style="stop-color:#2484C6;stop-opacity:0"/>
	</radialGradient>
	<path opacity="0.5" fill="url(#SVGID_7_)" d="M95.078,54.256c0,22.533-18.288,40.822-40.822,40.822
		C54.257,72.516,72.517,54.256,95.078,54.256z"/>

	<radialGradient id="SVGID_8_" cx="74.6676" cy="74.6667" r="40.8358" gradientUnits="userSpaceOnUse">
		<stop  offset="0" style="stop-color:#2484C6"/>
		<stop  offset="1" style="stop-color:#2484C6;stop-opacity:0"/>
	</radialGradient>
	<path opacity="0.5" fill="url(#SVGID_8_)" d="M115.503,74.681c-22.561,0-40.822,18.26-40.822,40.822
		c0-22.562-18.288-40.822-40.85-40.822c0-22.561,18.288-40.85,40.85-40.85C97.215,33.831,115.503,52.119,115.503,74.681z"/>

	<radialGradient id="SVGID_9_" cx="74.6676" cy="74.6667" r="20.4179" gradientUnits="userSpaceOnUse">
		<stop  offset="0" style="stop-color:#2484C6"/>
		<stop  offset="1" style="stop-color:#2484C6;stop-opacity:0"/>
	</radialGradient>
	<path opacity="0.5" fill="url(#SVGID_9_)" d="M95.093,95.077c-22.561,0-40.85-18.289-40.85-40.822
		C76.804,54.256,95.093,72.516,95.093,95.077z"/>

	<radialGradient id="SVGID_10_" cx="74.6676" cy="74.6667" r="20.4108" gradientUnits="userSpaceOnUse">
		<stop  offset="0" style="stop-color:#2484C6"/>
		<stop  offset="1" style="stop-color:#2484C6;stop-opacity:0"/>
	</radialGradient>
	<path opacity="0.5" fill="url(#SVGID_10_)" d="M95.078,54.256c0,22.533-18.288,40.822-40.822,40.822
		C54.257,72.516,72.517,54.256,95.078,54.256z"/>

		<animateTransform attributeName="transform"
                  attributeType="XML"
                  type="rotate"
                  from="0 75 75"
                  to="360 75 75"
                  dur="2s"
                  repeatCount="indefinite"/>

</g>
</svg>
